<?xml version="1.0" standalone="no"?><!DOCTYPE svg PUBLIC "-//W3C//DTD SVG 1.1//EN"
  "http://www.w3.org/Graphics/SVG/1.1/DTD/svg11.dtd">
<svg t="1617051662959" class="icon" viewBox="0 0 1024 1024" version="1.1" xmlns="http://www.w3.org/2000/svg" p-id="2967"
     xmlns:xlink="http://www.w3.org/1999/xlink" width="200" height="200">
  <defs>
    <style type="text/css"></style>
  </defs>
  <path
    d="M911.36 669.696c0 12.288-8.192 20.48-20.48 20.48s-20.48-8.192-20.48-20.48V604.16c0-10.24-8.192-20.48-20.48-20.48h-245.76c-10.24 0-20.48 8.192-20.48 20.48v245.76c0 10.24 8.192 20.48 20.48 20.48h245.76c10.24 0 20.48-10.24 20.48-20.48v-45.056c0-12.288 8.192-20.48 20.48-20.48s20.48 8.192 20.48 20.48v45.056c0 34.816-26.624 61.44-61.44 61.44h-245.76c-34.816 0-61.44-26.624-61.44-61.44v-245.76c0-34.816 26.624-61.44 61.44-61.44h245.76c34.816 0 61.44 26.624 61.44 61.44v65.536z m0-495.616v245.76c0 34.816-26.624 61.44-61.44 61.44h-245.76c-34.816 0-61.44-26.624-61.44-61.44v-245.76c0-34.816 26.624-61.44 61.44-61.44h245.76c34.816 0 61.44 26.624 61.44 61.44z m-430.08 0v245.76c0 34.816-26.624 61.44-61.44 61.44h-245.76c-34.816 0-61.44-26.624-61.44-61.44v-245.76c0-34.816 26.624-61.44 61.44-61.44h245.76c34.816 0 61.44 26.624 61.44 61.44z m0 430.08v245.76c0 34.816-26.624 61.44-61.44 61.44h-245.76c-34.816 0-61.44-26.624-61.44-61.44v-245.76c0-34.816 26.624-61.44 61.44-61.44h245.76c34.816 0 61.44 26.624 61.44 61.44z m389.12-430.08c0-10.24-8.192-20.48-20.48-20.48h-245.76c-10.24 0-20.48 8.192-20.48 20.48v245.76c0 10.24 8.192 20.48 20.48 20.48h245.76c10.24 0 20.48-8.192 20.48-20.48v-245.76z m-430.08 0c0-10.24-8.192-20.48-20.48-20.48h-245.76c-10.24 0-20.48 8.192-20.48 20.48v245.76c0 10.24 8.192 20.48 20.48 20.48h245.76c10.24 0 20.48-8.192 20.48-20.48v-245.76z m0 430.08c0-10.24-8.192-20.48-20.48-20.48h-245.76c-10.24 0-20.48 8.192-20.48 20.48v245.76c0 10.24 8.192 20.48 20.48 20.48h245.76c10.24 0 20.48-8.192 20.48-20.48v-245.76z"
    p-id="2968"></path>
</svg>
