<?xml version="1.0" standalone="no"?><!DOCTYPE svg PUBLIC "-//W3C//DTD SVG 1.1//EN"
  "http://www.w3.org/Graphics/SVG/1.1/DTD/svg11.dtd">
<svg t="1618423405613" class="icon" viewBox="0 0 1024 1024" version="1.1" xmlns="http://www.w3.org/2000/svg" p-id="3410"
     xmlns:xlink="http://www.w3.org/1999/xlink" width="200" height="200">
  <defs>
    <style type="text/css"></style>
  </defs>
  <path
    d="M926.4 16l-864 446.4s-51.2 48 0 91.2 156.8 121.6 156.8 121.6 32 32 64 0L627.2 352s24-6.4 11.2 12.8l-368 376-3.2 216s0 33.6 32 32H320s24 3.2 44.8-28.8l67.2-100.8s12.8-24 40 3.2L640 987.2s30.4 17.6 48 17.6h14.4s27.2 1.6 32-14.4l208-891.2 14.4-56S963.2 16 926.4 16z"
    p-id="3411"></path>
</svg>
