<?xml version="1.0" standalone="no"?><!DOCTYPE svg PUBLIC "-//W3C//DTD SVG 1.1//EN"
  "http://www.w3.org/Graphics/SVG/1.1/DTD/svg11.dtd">
<svg t="1617051797654" class="icon" viewBox="0 0 1024 1024" version="1.1" xmlns="http://www.w3.org/2000/svg" p-id="5737"
     xmlns:xlink="http://www.w3.org/1999/xlink" width="200" height="200">
  <defs>
    <style type="text/css"></style>
  </defs>
  <path d="M864 595.2V435.2l-89.6-74.88V256L609.28 142.72 505.6 213.12V812.8l81.92 65.92L774.4 761.6v-96z"
        fill="#FEDDC5" p-id="5738"></path>
  <path
    d="M586.88 894.72L492.8 819.2V206.72l116.48-79.36 177.92 121.6v105.6l89.6 74.88V601.6l-89.6 70.4v96.64l-200.32 126.08zM518.4 806.4l70.4 56.32 172.8-108.8V659.2l89.6-70.4V440.96l-89.6-74.88V263.04L609.28 158.72 518.4 220.16V806.4z"
    fill="#708DB7" p-id="5739"></path>
  <path
    d="M678.4 313.6c-7.04 0-12.8-5.76-12.8-12.8V198.4c0-7.04 5.76-12.8 12.8-12.8s12.8 5.76 12.8 12.8v102.4c0 7.04-5.76 12.8-12.8 12.8zM588.8 672c-7.04 0-12.8-5.76-12.8-12.8V569.6l83.2-57.6V424.96l-83.2-53.12V256c0-7.04 5.76-12.8 12.8-12.8s12.8 5.76 12.8 12.8v101.76l83.2 53.12V524.8l-83.2 57.6v76.8c0 7.04-5.76 12.8-12.8 12.8z"
    fill="#708DB7" p-id="5740"></path>
  <path
    d="M679.04 430.08c-4.48 0-8.32-1.92-10.88-5.76-3.84-5.76-1.92-14.08 3.84-17.92l88.32-56.96c5.76-3.84 14.08-1.92 17.92 3.84 3.84 5.76 1.92 14.08-3.84 17.92l-88.32 56.96c-1.92 1.28-4.48 1.92-7.04 1.92zM744.96 584.32c-2.56 0-5.12-0.64-7.68-2.56l-65.92-49.92c-5.76-4.48-7.04-12.16-2.56-17.92 4.48-5.76 12.16-7.04 17.92-2.56l65.92 49.92c5.76 4.48 7.04 12.16 2.56 17.92-2.56 3.84-6.4 5.12-10.24 5.12zM768 672c-1.92 0-4.48-0.64-6.4-1.92l-87.04-48.64c-6.4-3.2-8.32-11.52-5.12-17.28 3.2-6.4 11.52-8.32 17.28-5.12l87.04 48.64c6.4 3.2 8.32 11.52 5.12 17.28-2.56 4.48-6.4 7.04-10.88 7.04zM672.64 739.84c-2.56 0-4.48-0.64-6.4-1.92L500.48 636.8c-5.76-3.84-7.68-11.52-4.48-17.28 3.84-5.76 11.52-7.68 17.92-4.48l165.76 101.12c5.76 3.84 7.68 11.52 4.48 17.28-2.56 3.84-7.04 6.4-11.52 6.4zM662.4 833.92c-1.92 0-3.84-0.64-5.76-1.28l-96-50.56c-6.4-3.2-8.96-10.88-5.12-17.28 3.2-6.4 10.88-8.96 17.28-5.12l96 50.56c6.4 3.2 8.96 10.88 5.12 17.28-1.92 3.84-6.4 6.4-11.52 6.4zM855.04 538.24c-2.56 0-5.12-0.64-7.04-1.92L761.6 477.44c-5.76-3.84-7.68-12.16-3.2-17.92 3.84-5.76 12.16-7.68 17.92-3.2l86.4 58.88c5.76 3.84 7.68 12.16 3.2 17.92-2.56 3.2-6.4 5.12-10.88 5.12z"
    fill="#708DB7" p-id="5741"></path>
  <path
    d="M496.64 262.4h-38.4l-58.88-77.44-67.84 33.92 19.2 96-40.32 40.96-103.04-16-26.88 64.64L256 469.76V531.2l-75.52 62.72 24.32 59.52 94.72-13.44 49.92 54.4-8.32 93.44 56.32 19.2 62.72-76.16 45.44 5.76V262.4z"
    fill="#E5E4FE" p-id="5742"></path>
  <path
    d="M401.92 822.4l-74.88-25.6 9.6-97.92-41.6-45.44-97.92 14.08-31.36-78.08 77.44-64v-49.92L165.76 408.32l33.92-82.56 106.88 16.64 30.72-31.36-19.84-99.2L403.2 168.32 464.64 249.6H518.4v501.76l-53.12-6.4-63.36 77.44z m-47.36-43.52l39.04 12.8 61.44-74.88 38.4 4.48V275.2h-40.96l-56.32-74.24-50.56 24.96 18.56 92.8-49.28 50.56-99.84-15.36-19.2 46.72L268.8 464V537.6l-72.96 60.16 16.64 42.24 91.52-13.44 58.88 63.36-8.32 88.96z"
    fill="#708DB7" p-id="5743"></path>
  <path d="M498.56 499.2m-70.4 0a70.4 70.4 0 1 0 140.8 0 70.4 70.4 0 1 0-140.8 0Z" fill="#F8F8FF" p-id="5744"></path>
  <path
    d="M498.56 582.4c-46.08 0-83.2-37.12-83.2-83.2s37.12-83.2 83.2-83.2 83.2 37.12 83.2 83.2-37.76 83.2-83.2 83.2z m0-140.8c-32 0-57.6 25.6-57.6 57.6s25.6 57.6 57.6 57.6 57.6-25.6 57.6-57.6-26.24-57.6-57.6-57.6z"
    fill="#708DB7" p-id="5745"></path>
</svg>
