<?xml version="1.0" standalone="no"?><!DOCTYPE svg PUBLIC "-//W3C//DTD SVG 1.1//EN"
  "http://www.w3.org/Graphics/SVG/1.1/DTD/svg11.dtd">
<svg t="1616255392611" class="icon" viewBox="0 0 1024 1024" version="1.1" xmlns="http://www.w3.org/2000/svg" p-id="1416"
     xmlns:xlink="http://www.w3.org/1999/xlink" width="200" height="200">
  <defs>
    <style type="text/css"></style>
  </defs>
  <path
    d="M128.5 258.5c-16.569 0-30-13.431-30-30 0-16.569 13.431-30 30-30H896c16.569 0 30 13.431 30 30 0 16.569-13.431 30-30 30H128.5zM128.5 826.5c-16.569 0-30-13.431-30-30 0-16.569 13.431-30 30-30H896c16.569 0 30 13.431 30 30 0 16.569-13.431 30-30 30H128.5zM128.5 542.5c-16.569 0-30-13.431-30-30 0-16.569 13.431-30 30-30H896c16.569 0 30 13.431 30 30 0 16.569-13.431 30-30 30H128.5z"
    p-id="1417"></path>
</svg>
